<svg id="bear" xmlns="http://www.w3.org/2000/svg" viewBox="0 0 256 256"><defs><style>.cls-1{fill:#673200;}.cls-2{fill:#ffaaca;}.cls-3{fill:#c65b00;}.cls-4{fill:none;stroke:#000;stroke-linecap:round;stroke-linejoin:round;stroke-width:3px;}</style></defs><title>bear</title><g id="left-ear"><circle class="cls-1" cx="43.91" cy="49.24" r="34.6"/><circle class="cls-2" cx="46.36" cy="58" r="14.84"/></g><g id="right-ear"><circle class="cls-1" cx="212.09" cy="49.24" r="34.6"/><circle class="cls-2" cx="209.64" cy="58" r="14.84"/></g><g id="face"><circle class="cls-1" cx="128" cy="133.23" r="108.13"/><circle class="cls-3" cx="128" cy="172.72" r="42.32"/><path class="cls-3" d="M174 35.36a65.62 65.62 0 0 0 61 113.25 108.21 108.21 0 0 0-61-113.25zM19.87 133.23A109 109 0 0 0 21 148.61 65.61 65.61 0 0 0 82 35.36a108.13 108.13 0 0 0-62.13 97.87z"/><path class="cls-4" d="M101.25 187.09a37.24 37.24 0 0 0 52.69 0"/></g><circle id="nose" class="cls-2" cx="128" cy="138.09" r="12.96"/><circle id="left-eye" cx="84.77" cy="106.5" r="9.31"/><circle id="right-eye" cx="171.23" cy="106.5" r="9.31"/></svg>